# xmcd CD database file
#
# Track frame offsets:
#	150
#	22462
#	40605
#	66957
#	89829
#	108315
#	132432
#	157822
#	173085
#
# Disc length: 2779 seconds
#
# Revision: 0
# Processed by: cddbd v1.5.1PL0 Copyright (c) Steve Scherf et al.
# Submitted via: CDex 1.51
#
DISCID=780ad909
DTITLE=Ting Ting - 蓬莱の調べ
DYEAR=1900
DGENRE=New Age
TTITLE0=蓬莱遊
TTITLE1=草原情歌
TTITLE2=宮姫
TTITLE3=月下芙蓉
TTITLE4=昔話
TTITLE5=月の願い
TTITLE6=あざみの歌
TTITLE7=三日月
TTITLE8=スールの太陽
EXTD=
EXTT0=
EXTT1=
EXTT2=
EXTT3=
EXTT4=
EXTT5=
EXTT6=
EXTT7=
EXTT8=
PLAYORDER=
